<svg xmlns="http://www.w3.org/2000/svg" xmlns:xlink="http://www.w3.org/1999/xlink" enable-background="new" height="1600" width="1600"><defs><linearGradient id="b"><stop offset="0" stop-color="#ff91ff"/><stop offset="1" stop-color="#f0f" stop-opacity=".97"/></linearGradient><linearGradient id="a"><stop offset="0" stop-color="#fff" stop-opacity="0"/><stop offset="1" stop-opacity=".996"/></linearGradient><linearGradient gradientTransform="matrix(1.10502 .57596 0 1.28166 -91.592 -307.848)" gradientUnits="userSpaceOnUse" y2="412.825" x2="732.288" y1="319.609" x1="722.795" id="j" xlink:href="#a"/><filter height="1.075" y="-.037" width="1.035" x="-.018" id="d" color-interpolation-filters="sRGB"><feGaussianBlur stdDeviation="3.347"/></filter><filter height="1.065" y="-.033" width="1.038" x="-.019" id="e" color-interpolation-filters="sRGB"><feGaussianBlur stdDeviation="5.159"/></filter><filter height="1.096" y="-.048" width="1.032" x="-.016" id="f" color-interpolation-filters="sRGB"><feGaussianBlur stdDeviation="2.538"/></filter><filter height="1.067" y="-.034" width="1.037" x="-.019" id="k" color-interpolation-filters="sRGB"><feGaussianBlur stdDeviation="3.41"/></filter><filter height="1.112" y="-.056" width="1.053" x="-.027" id="h" color-interpolation-filters="sRGB"><feGaussianBlur stdDeviation="6.268"/></filter><filter height="1.302" y="-.151" width="1.101" x="-.05" id="g" color-interpolation-filters="sRGB"><feGaussianBlur stdDeviation="1.294"/></filter><radialGradient gradientUnits="userSpaceOnUse" gradientTransform="matrix(.3449 .17563 -.10026 .1969 679.675 -353.383)" r="598.001" fy="-469.931" fx="1069.486" cy="-469.931" cx="1069.486" id="c" xlink:href="#b"/><filter height="1.071" y="-.036" width="1.036" x="-.018" id="i" color-interpolation-filters="sRGB"><feGaussianBlur stdDeviation="3.586"/></filter></defs><path d="M728.134-431.648a1007.862 1007.862 0 0 0-79.66 3.17c-154.495 12.305-294.763 59.447-391.465 132.96-96.618 73.448-142.19 169.47-121.793 264.802 10.695 63.395 57.46 116.597 118.906 161.322 61.595 44.833 138.863 81.662 214.688 111.213 151.649 59.103 298.049 88.914 298.049 88.914l15.507 3.164 8.905-59.93c14.057-2.77 81.547-16.224 166.523-38.814 94.25-25.055 198.967-57.438 249.686-97.719 94.143-74.767 136.298-171.693 112.367-266.734-23.93-95.041-109.485-177.62-235.012-232.738-103.952-45.645-229.033-69.65-356.701-69.61z" style="line-height:normal;font-variant-ligatures:normal;font-variant-position:normal;font-variant-caps:normal;font-variant-numeric:normal;font-variant-alternates:normal;font-feature-settings:normal;text-indent:0;text-align:start;text-decoration-line:none;text-decoration-style:solid;text-decoration-color:#000;text-transform:none;text-orientation:mixed;white-space:normal;shape-padding:0;isolation:auto;mix-blend-mode:normal;solid-color:#000;solid-opacity:1" color="#000" font-weight="400" font-family="sans-serif" overflow="visible" fill="url(#c)" paint-order="fill markers stroke" enable-background="accumulate" transform="translate(73.292 1061.412)"/><path d="M575.621 671.526l24.762 72.357 123.54 176.26 163.669-1.574 114.692-180.98 26.28-68.274c-143.14-34.844-311.286-39.58-452.943 2.21z" fill="#fff2f6"/><path d="M358.405-77.527l46.543-.87c201.76 205.351 658.204 223.15 686.522-7.624l44.272 8.494c-186.876 232.969-573.013 262.573-777.337 0z" opacity=".1" stroke="#000" filter="url(#d)" transform="translate(73.292 1061.412)"/><path d="M139.32-57.537c66.825 170.328 319.701 305.885 649.725 337.069l-11.4 42.625C283.112 223.087 192.3 132.246 139.32-57.537z" opacity=".1" filter="url(#e)" transform="translate(73.292 1061.412)"/><path d="M790.212 269.215l-6.582-138.607c115.316-41.863 246.059-12.203 263.434 25.938 87.19-5.42 181.459-77.703 257.358-183.956-5.798 116.69-320.398 311.526-514.21 296.625z" opacity=".1" filter="url(#f)" transform="translate(73.292 1061.412)"/><g transform="translate(73.292 1061.412)"><ellipse ry="349.751" rx="583.872" cy="-71.59" cx="729.34" opacity=".115" fill="none" paint-order="fill markers stroke"/><ellipse cx="728.439" cy="-18.326" rx="18.157" ry="16.662" fill="purple" stroke="purple" stroke-width="1.63" stroke-linecap="square" stroke-linejoin="round" paint-order="stroke markers fill"/><ellipse ry="16.662" rx="18.157" cy="-90.57" cx="728.439" fill="purple" stroke="purple" stroke-width="1.63" stroke-linecap="square" stroke-linejoin="round" paint-order="stroke markers fill"/><ellipse ry="16.662" rx="18.157" cy="53.918" cx="728.439" fill="purple" stroke="purple" stroke-width="1.63" stroke-linecap="square" stroke-linejoin="round" paint-order="stroke markers fill"/><path d="M388.061-86.492l-29.656 8.965C468.65 41.93 583.951 105.197 782.045 109.382c5.587 65.382 8.846 114.133-4.4 212.775-260.707-49.33-589.41-124.747-627.722-355.778-19.15-89.003 22.594-178.825 116.163-249.956 93.57-71.132 231.409-117.828 383.579-129.947 152.17-12.12 306.38 11.318 429.14 65.22 122.758 53.903 204.149 133.918 226.495 222.666 22.346 88.748-16.158 179.062-107.149 251.326-90.99 72.264-256.238 129.544-407.939 143.527" fill="none" stroke="purple" stroke-width="30" stroke-linecap="square" paint-order="fill markers stroke"/><ellipse ry="16.662" rx="18.157" cy="255.174" cx="729.339" fill="purple" stroke="purple" stroke-width="1.63" stroke-linecap="square" stroke-linejoin="round" paint-order="stroke markers fill"/><path d="M678.918-130.181V96.264M1091.47-86.02l44.272 8.493c-72.24 93.058-204.793 171.772-353.698 186.909m57.886-251.051H613.486" fill="none" stroke="purple" stroke-width="30"/><path d="M486.194-384.322l241.004 257.39-133.076 22.97z" fill="purple"/><path d="M513.59-396.548l-28 10.768 81.28 211.355 28-10.768z" style="line-height:normal;font-variant-ligatures:normal;font-variant-position:normal;font-variant-caps:normal;font-variant-numeric:normal;font-variant-alternates:normal;font-feature-settings:normal;text-indent:0;text-align:start;text-decoration-line:none;text-decoration-style:solid;text-decoration-color:#000;text-transform:none;text-orientation:mixed;white-space:normal;shape-padding:0;isolation:auto;mix-blend-mode:normal;solid-color:#000;solid-opacity:1" color="#000" font-weight="400" font-family="sans-serif" overflow="visible" fill="purple" enable-background="accumulate"/><path d="M968.202-384.322l-241.004 257.39 133.076 22.97z" fill="purple"/><path style="line-height:normal;font-variant-ligatures:normal;font-variant-position:normal;font-variant-caps:normal;font-variant-numeric:normal;font-variant-alternates:normal;font-feature-settings:normal;text-indent:0;text-align:start;text-decoration-line:none;text-decoration-style:solid;text-decoration-color:#000;text-transform:none;text-orientation:mixed;white-space:normal;shape-padding:0;isolation:auto;mix-blend-mode:normal;solid-color:#000;solid-opacity:1" d="M940.806-396.548l28 10.768-81.28 211.355-28-10.768z" color="#000" font-weight="400" font-family="sans-serif" overflow="visible" fill="purple" enable-background="accumulate"/></g><path d="M873.322 1203.806c-25.022 36.782-13.617 89.787-4.721 133.375 2.287 11.21 5.118 24.616 14.557 31.081 23.75 16.27 60.775 14.47 89.5 12.579 30.31-1.997 60.935-15.764 85.972-24.775 37.429-13.471 24.269-78.081 20.066-117.637-4.46-41.971-43.106-31.17-76.373-35.663-7.12-39.716-54.46-28.101-85.723-17.845-14.956 4.907-34.425 5.871-43.278 18.885z" fill="#fff2f6" stroke="purple" stroke-width="30"/><path d="M898.965 1229.197c4.76-.025 34.939 20.671 31.448 12.795-11.469-25.87 63.493-19.569 59.984-26.466-29.448-1.478-61.934 4.87-91.432 13.671z" transform="matrix(-1.00325 0 0 -.93331 1924.67 2364.156)" opacity=".1" filter="url(#g)"/><path transform="matrix(-1.89303 .22887 -.10287 -.85085 2956.137 2082.877)" d="M932.242 1212.35c-7.988 8.272-24.168 34.105.92 43.037-5.039-40.219 57.041-25.204 65.788-36.636-28.104-17.19-64.985 12.088-66.708-6.4z" opacity=".1" filter="url(#g)"/><path d="M933.2 1213.431c-4.705 4.012-8.851 29.585-1.913 62.845-10.647-63.182 57.45-38.723 67.663-57.525-29.265-12.297-67.53 15.845-65.75-5.32z" transform="matrix(-1.89303 .22887 -.10287 -.85085 2960.338 2134.335)" opacity=".1" filter="url(#g)"/><g><ellipse transform="matrix(-1 0 0 1 2.057 158.087)" ry="291.209" rx="290.603" cy="386.224" cx="-800.575" fill="#fff2f6" stroke="#000" stroke-width="30.265" paint-order="markers fill stroke"/><path d="M513.79 356.791c74.964-139.35 161.768-192.526 282.652-202.53 141.952 4.256 205.07 102.806 283.766 199.192l-16.693-161.357L804.232 87.492 523.805 198.773z" opacity=".1" fill-opacity=".996" filter="url(#h)" transform="translate(2.057 158.087)"/><path d="M511.927 466.516c98.236 218.857 276.959 257.63 475.271 152.653-63.074 47.801-145.29 113.421-315.536 80.261-103.316-61.055-154.768-161.396-159.735-232.914z" opacity=".1" fill-opacity=".996" stroke="#000" filter="url(#i)" transform="translate(2.057 158.087)"/><path d="M1061.456 531.777C896.163 741.13 595.36 734.105 509.146 428.437c233.91 311.667 369.79 201.236 552.31 103.34z" opacity=".1" fill="url(#j)" paint-order="stroke fill markers" filter="url(#k)" transform="translate(2.057 158.087)"/><g transform="matrix(1.19765 0 0 1.13134 -35.725 -6.699)"><path d="M870.465 436.598c-17.306-49.885-43.017-99.703-136.428-66.26m-204.5 68.136c17.307-49.885 43.017-99.702 136.428-66.259m89.336 224.245c-50.258 26.199-111.7 10.566-152.098-27.124m11.177-36.544c-9.34 17.944-24.238 41.076-38.344 58.317" fill="none" stroke="purple" stroke-width="26"/><path d="M655.828 181.611c-5.383-.07-10.828.175-16.236.557-24.518 1.73-56.899 21.46-81.082 31.451-38.453 15.886-51.627 58.513-108.994 81.123-18.979 7.48-35.223 79.186-32.93 79.186 36.726-12.664-9.952 100.302-16.807 99.088 31.642 62.249 85.028-11.72 84.639-25.688-2.32-83.209 51.714-129.868 34.953-86.71-3.466 8.924 51.109-34.062 51.106-53.575 10.849 8.605 29.84 16.839 49.566 1.723-21.302 13.666-5.25-59.889 79.959-35.938 85.21-23.951 101.259 49.604 79.957 35.938 19.725 15.116 38.717 6.882 49.566-1.723-.003 19.513 54.572 62.5 51.106 53.574-16.76-43.157 37.273 3.502 34.953 86.711-.39 13.969 52.997 87.937 84.639 25.688-6.855 1.214-53.533-111.752-16.807-99.088 2.293 0-13.952-71.706-32.93-79.186-57.367-22.61-70.541-65.237-108.994-81.123-24.184-9.991-56.564-29.72-81.082-31.451-21.633-1.527-43.843-.882-60.408 13.457-12.424-10.754-28.024-13.804-44.174-14.014z" fill="purple" paint-order="stroke markers fill"/><ellipse transform="scale(-1 1)" ry="257.402" rx="242.644" cy="487.042" cx="-700.001" fill="none" stroke="purple" stroke-width="26" paint-order="markers fill stroke"/></g></g></svg>