<svg xmlns="http://www.w3.org/2000/svg" xmlns:xlink="http://www.w3.org/1999/xlink" height="2400" width="8000"><defs><linearGradient id="d"><stop offset="0" stop-color="#f0f"/><stop offset="1" stop-color="#ff69ff"/></linearGradient><linearGradient id="a"><stop offset="0" stop-color="#f0f"/><stop offset="1" stop-color="#faf"/></linearGradient><linearGradient id="c"><stop offset="0"/><stop offset="1" stop-opacity="0"/></linearGradient><linearGradient id="b"><stop offset="0"/><stop offset="1" stop-opacity=".141"/></linearGradient><linearGradient gradientUnits="userSpaceOnUse" y2="-1624.751" x2="3423.14" y1="104.012" x1="2908.813" id="p" xlink:href="#d"/><linearGradient id="f"><stop offset="0" stop-color="#ff91ff"/><stop offset="1" stop-color="#f0f" stop-opacity=".97"/></linearGradient><linearGradient id="e"><stop offset="0" stop-color="#fff" stop-opacity="0"/><stop offset="1" stop-opacity=".996"/></linearGradient><linearGradient xlink:href="#e" id="n" x1="722.795" y1="319.609" x2="732.288" y2="412.825" gradientUnits="userSpaceOnUse" gradientTransform="matrix(1.10502 .57596 0 1.28166 -91.592 -307.848)"/><filter id="h" x="-.018" width="1.035" y="-.037" height="1.075" color-interpolation-filters="sRGB"><feGaussianBlur stdDeviation="3.347"/></filter><filter id="i" x="-.019" width="1.038" y="-.033" height="1.065" color-interpolation-filters="sRGB"><feGaussianBlur stdDeviation="5.159"/></filter><filter id="j" x="-.016" width="1.032" y="-.048" height="1.096" color-interpolation-filters="sRGB"><feGaussianBlur stdDeviation="2.538"/></filter><filter id="o" x="-.019" width="1.037" y="-.034" height="1.067" color-interpolation-filters="sRGB"><feGaussianBlur stdDeviation="3.41"/></filter><filter id="l" x="-.027" width="1.053" y="-.056" height="1.112" color-interpolation-filters="sRGB"><feGaussianBlur stdDeviation="6.268"/></filter><filter id="k" x="-.05" width="1.101" y="-.151" height="1.302" color-interpolation-filters="sRGB"><feGaussianBlur stdDeviation="1.294"/></filter><radialGradient xlink:href="#f" id="g" cx="1069.486" cy="-469.931" fx="1069.486" fy="-469.931" r="598.001" gradientTransform="matrix(.3449 .17563 -.10026 .1969 679.675 -353.383)" gradientUnits="userSpaceOnUse"/><filter id="m" x="-.018" width="1.036" y="-.036" height="1.071" color-interpolation-filters="sRGB"><feGaussianBlur stdDeviation="3.586"/></filter></defs><path style="line-height:normal;font-variant-ligatures:normal;font-variant-position:normal;font-variant-caps:normal;font-variant-numeric:normal;font-variant-alternates:normal;font-feature-settings:normal;text-indent:0;text-align:start;text-decoration-line:none;text-decoration-style:solid;text-decoration-color:#000;text-transform:none;text-orientation:mixed;white-space:normal;shape-padding:0;isolation:auto;mix-blend-mode:normal;solid-color:#000;solid-opacity:1" d="M728.134-431.648a1007.862 1007.862 0 0 0-79.66 3.17c-154.495 12.305-294.763 59.447-391.465 132.96-96.618 73.448-142.19 169.47-121.793 264.802 10.695 63.395 57.46 116.597 118.906 161.322 61.595 44.833 138.863 81.662 214.688 111.213 151.649 59.103 298.049 88.914 298.049 88.914l15.507 3.164 8.905-59.93c14.057-2.77 81.547-16.224 166.523-38.814 94.25-25.055 198.967-57.438 249.686-97.719 94.143-74.767 136.298-171.693 112.367-266.734-23.93-95.041-109.485-177.62-235.012-232.738-103.952-45.645-229.033-69.65-356.701-69.61z" color="#000" font-weight="400" font-family="sans-serif" overflow="visible" fill="url(#g)" paint-order="fill markers stroke" enable-background="accumulate" transform="translate(452.67 1461.412)"/><path d="M955 1071.526l24.762 72.357 123.54 176.26 163.669-1.574 114.692-180.98 26.28-68.274c-143.14-34.844-311.286-39.58-452.943 2.21z" fill="#fff2f6"/><path d="M358.405-77.527l46.543-.87c201.76 205.351 658.204 223.15 686.522-7.624l44.272 8.494c-186.876 232.969-573.013 262.573-777.337 0z" opacity=".1" stroke="#000" filter="url(#h)" transform="translate(452.67 1461.412)"/><path d="M139.32-57.537c66.825 170.328 319.701 305.885 649.725 337.069l-11.4 42.625C283.112 223.087 192.3 132.246 139.32-57.537z" opacity=".1" filter="url(#i)" transform="translate(452.67 1461.412)"/><path d="M790.212 269.215l-6.582-138.607c115.316-41.863 246.059-12.203 263.434 25.938 87.19-5.42 181.459-77.703 257.358-183.956-5.798 116.69-320.398 311.526-514.21 296.625z" opacity=".1" filter="url(#j)" transform="translate(452.67 1461.412)"/><g transform="translate(452.67 1461.412)"><ellipse cx="729.34" cy="-71.59" rx="583.872" ry="349.751" opacity=".115" fill="none" paint-order="fill markers stroke"/><ellipse ry="16.662" rx="18.157" cy="-18.326" cx="728.439" fill="purple" stroke="purple" stroke-width="1.63" stroke-linecap="square" stroke-linejoin="round" paint-order="stroke markers fill"/><ellipse cx="728.439" cy="-90.57" rx="18.157" ry="16.662" fill="purple" stroke="purple" stroke-width="1.63" stroke-linecap="square" stroke-linejoin="round" paint-order="stroke markers fill"/><ellipse cx="728.439" cy="53.918" rx="18.157" ry="16.662" fill="purple" stroke="purple" stroke-width="1.63" stroke-linecap="square" stroke-linejoin="round" paint-order="stroke markers fill"/><path d="M388.061-86.492l-29.656 8.965C468.65 41.93 583.951 105.197 782.045 109.382c5.587 65.382 8.846 114.133-4.4 212.775-260.707-49.33-589.41-124.747-627.722-355.778-19.15-89.003 22.594-178.825 116.163-249.956 93.57-71.132 231.409-117.828 383.579-129.947 152.17-12.12 306.38 11.318 429.14 65.22 122.758 53.903 204.149 133.918 226.495 222.666 22.346 88.748-16.158 179.062-107.149 251.326-90.99 72.264-256.238 129.544-407.939 143.527" fill="none" stroke="purple" stroke-width="30" stroke-linecap="square" paint-order="fill markers stroke"/><ellipse cx="729.339" cy="255.174" rx="18.157" ry="16.662" fill="purple" stroke="purple" stroke-width="1.63" stroke-linecap="square" stroke-linejoin="round" paint-order="stroke markers fill"/><path d="M678.918-130.181V96.264M1091.47-86.02l44.272 8.493c-72.24 93.058-204.793 171.772-353.698 186.909M839.93-141.669H613.486" fill="none" stroke="purple" stroke-width="30"/><path d="M486.194-384.322l241.004 257.39-133.076 22.97z" fill="purple"/><path style="line-height:normal;font-variant-ligatures:normal;font-variant-position:normal;font-variant-caps:normal;font-variant-numeric:normal;font-variant-alternates:normal;font-feature-settings:normal;text-indent:0;text-align:start;text-decoration-line:none;text-decoration-style:solid;text-decoration-color:#000;text-transform:none;text-orientation:mixed;white-space:normal;shape-padding:0;isolation:auto;mix-blend-mode:normal;solid-color:#000;solid-opacity:1" d="M513.59-396.548l-28 10.768 81.28 211.355 28-10.768z" color="#000" font-weight="400" font-family="sans-serif" overflow="visible" fill="purple" enable-background="accumulate"/><path d="M968.202-384.322l-241.004 257.39 133.076 22.97z" fill="purple"/><path d="M940.806-396.548l28 10.768-81.28 211.355-28-10.768z" style="line-height:normal;font-variant-ligatures:normal;font-variant-position:normal;font-variant-caps:normal;font-variant-numeric:normal;font-variant-alternates:normal;font-feature-settings:normal;text-indent:0;text-align:start;text-decoration-line:none;text-decoration-style:solid;text-decoration-color:#000;text-transform:none;text-orientation:mixed;white-space:normal;shape-padding:0;isolation:auto;mix-blend-mode:normal;solid-color:#000;solid-opacity:1" color="#000" font-weight="400" font-family="sans-serif" overflow="visible" fill="purple" enable-background="accumulate"/></g><g><path d="M1252.7 1603.806c-25.02 36.782-13.616 89.787-4.72 133.375 2.287 11.21 5.118 24.616 14.557 31.081 23.75 16.27 60.775 14.47 89.5 12.579 30.31-1.997 60.934-15.764 85.972-24.775 37.429-13.471 24.269-78.081 20.066-117.637-4.46-41.971-43.106-31.17-76.373-35.663-7.12-39.716-54.46-28.101-85.723-17.845-14.956 4.907-34.425 5.871-43.278 18.885z" fill="#fff2f6" stroke="purple" stroke-width="30"/><path transform="matrix(-1.00325 0 0 -.93331 2304.05 2764.156)" d="M898.965 1229.197c4.76-.025 34.939 20.671 31.448 12.795-11.469-25.87 63.493-19.569 59.984-26.466-29.448-1.478-61.934 4.87-91.432 13.671z" opacity=".1" filter="url(#k)"/><path d="M932.242 1212.35c-7.988 8.272-24.168 34.105.92 43.037-5.039-40.219 57.041-25.204 65.788-36.636-28.104-17.19-64.985 12.088-66.708-6.4z" transform="matrix(-1.89303 .22887 -.10287 -.85085 3335.516 2482.877)" opacity=".1" filter="url(#k)"/><path transform="matrix(-1.89303 .22887 -.10287 -.85085 3339.716 2534.335)" d="M933.2 1213.431c-4.705 4.012-8.851 29.585-1.913 62.845-10.647-63.182 57.45-38.723 67.663-57.525-29.265-12.297-67.53 15.845-65.75-5.32z" opacity=".1" filter="url(#k)"/></g><g><ellipse cx="-800.575" cy="386.224" rx="290.603" ry="291.209" transform="matrix(-1 0 0 1 381.436 558.087)" fill="#fff2f6" stroke="#000" stroke-width="30.265" paint-order="markers fill stroke"/><path d="M513.79 356.791c74.964-139.35 161.768-192.526 282.652-202.53 141.952 4.256 205.07 102.806 283.766 199.192l-16.693-161.357L804.232 87.492 523.805 198.773z" opacity=".1" fill-opacity=".996" filter="url(#l)" transform="translate(381.436 558.087)"/><path d="M511.927 466.516c98.236 218.857 276.959 257.63 475.271 152.653-63.074 47.801-145.29 113.421-315.536 80.261-103.316-61.055-154.768-161.396-159.735-232.914z" opacity=".1" fill-opacity=".996" stroke="#000" filter="url(#m)" transform="translate(381.436 558.087)"/><path d="M1061.456 531.777C896.163 741.13 595.36 734.105 509.146 428.437c233.91 311.667 369.79 201.236 552.31 103.34z" opacity=".1" fill="url(#n)" paint-order="stroke fill markers" filter="url(#o)" transform="translate(381.436 558.087)"/><g><g transform="matrix(1.19765 0 0 1.13134 343.654 393.301)"><path d="M870.465 436.598c-17.306-49.885-43.017-99.703-136.428-66.26M529.537 438.474c17.307-49.885 43.017-99.702 136.428-66.259M755.301 596.46c-50.258 26.199-111.7 10.566-152.098-27.124M614.38 532.792c-9.34 17.944-24.238 41.076-38.344 58.317" fill="none" stroke="purple" stroke-width="26"/><path d="M655.828 181.611c-5.383-.07-10.828.175-16.236.557-24.518 1.73-56.899 21.46-81.082 31.451-38.453 15.886-51.627 58.513-108.994 81.123-18.979 7.48-35.223 79.186-32.93 79.186 36.726-12.664-9.952 100.302-16.807 99.088 31.642 62.249 85.028-11.72 84.639-25.688-2.32-83.209 51.714-129.868 34.953-86.71-3.466 8.924 51.109-34.062 51.106-53.575 10.849 8.605 29.84 16.839 49.566 1.723-21.302 13.666-5.25-59.889 79.959-35.938 85.21-23.951 101.259 49.604 79.957 35.938 19.725 15.116 38.717 6.882 49.566-1.723-.003 19.513 54.572 62.5 51.106 53.574-16.76-43.157 37.273 3.502 34.953 86.711-.39 13.969 52.997 87.937 84.639 25.688-6.855 1.214-53.533-111.752-16.807-99.088 2.293 0-13.952-71.706-32.93-79.186-57.367-22.61-70.541-65.237-108.994-81.123-24.184-9.991-56.564-29.72-81.082-31.451-21.633-1.527-43.843-.882-60.408 13.457-12.424-10.754-28.024-13.804-44.174-14.014z" fill="purple" paint-order="stroke markers fill"/><ellipse cx="-700.001" cy="487.042" rx="242.644" ry="257.402" transform="scale(-1 1)" fill="none" stroke="purple" stroke-width="26" paint-order="markers fill stroke"/></g></g></g><g><path style="line-height:0;-inkscape-font-specification:'Magneto, Bold Semi-Expanded';font-variant-ligatures:normal;font-variant-caps:normal;font-variant-numeric:normal;font-feature-settings:normal;text-align:start" d="M6028.187 1370.928q0 32.034-15.504 54.846-15.503 22.812-37.39 22.812-22.193 0-37.696-22.812-15.2-22.812-15.2-54.846 0-32.034 15.2-54.846 15.503-22.812 37.695-22.812 21.888 0 37.391 22.812 15.504 22.812 15.504 54.846zM6452.126 1355.882q-6.688 37.858-27.968 58.729-19.455 18.929-45.294 18.929H6195.86q-52.287 0-87.854-28.151-44.991-35.432-44.991-106.78 0-7.766.607-16.017 6.08-86.88 56.543-135.901 44.383-43.197 104.877-43.197h76.606q25.84 0 44.08 26.21 18.239 26.209 18.239 64.067 0 38.344-18.544 65.038-18.24 26.695-43.775 26.695-25.84 0-44.079-26.695-17.936-27.18-17.631-66.009v-11.648h-36.784l-23.71 107.265q-3.04 13.59-3.04 24.753 0 42.712 42.254 42.712z" font-weight="700" font-stretch="semi-expanded" font-size="128.679" font-family="Magneto" letter-spacing="0" word-spacing="0" fill="none" stroke="purple" stroke-width="27.549"/><path d="M7111.79 1090.39c-28.98 0-55.124 15.369-78.43 46.108l-93.326 122.312 34.35-155.316H6587.708c-44.585 0-80.255 14.722-107.006 44.167-25.13 27.827-40.33 66.172-45.598 115.031a227.36 227.36 0 0 0-1.52 26.21c0 44.329 11.45 80.084 34.35 107.264 25.739 30.74 62.522 45.787 110.35 45.14 41.14-.324 74.58-15.209 100.318-44.654 26.954-30.74 41.85-73.129 44.686-127.166.81-13.913-.912-30.254-5.167-49.02-4.257-19.092-9.729-32.196-16.416-39.314h145.844l-55.56 252.387h62.015c15.402 0 28.273-6.957 38.609-20.87l120.989-161.14-24.32 104.352c-3.04 12.62-4.56 24.27-4.56 34.947 0 33.005 13.78 49.507 41.343 49.507 18.441 0 40.633-17.15 66.574-51.449l102.75-137.356c-8.918 45.624-15.605 80.407-20.064 104.351-.81 4.854-1.216 9.87-1.216 15.047 0 16.178 4.053 30.74 12.16 43.683 8.31 12.62 17.327 18.928 27.055 18.928h123.422c40.127 0 63.129-25.886 69.006-77.658h-124.639l39.216-174.73c3.244-14.236 4.864-27.18 4.864-38.828 0-34.623-12.767-51.934-38.303-51.934-26.953 0-51.476 15.047-73.566 45.14l-90.893 123.281 21.887-96.587c2.229-10.03 3.344-19.254 3.344-27.666 0-29.446-11.957-44.168-35.871-44.168zm-547.794 90.762h69.615l-40.432 183.951c-2.838.324-6.182.486-10.033.486-32.426 0-48.638-13.914-48.638-41.741 0-5.825.71-11.973 2.127-18.445z" style="line-height:0;-inkscape-font-specification:'Magneto, Bold Semi-Expanded';font-variant-ligatures:normal;font-variant-caps:normal;font-variant-numeric:normal;font-feature-settings:normal;text-align:start" font-weight="700" font-stretch="semi-expanded" font-size="128.679" font-family="Magneto" letter-spacing="0" word-spacing="0" fill="none" stroke="purple" stroke-width="27.549"/><g fill="url(#p)" letter-spacing="0" stroke="purple" transform="translate(-106.013 1740.132)"><path d="M4952.756-891.938l-219.18 507.688h-58.974c-26.886 0-52.681 2.177-77.33 6.859-20.365 3.869-22.049 3.99-41.67 10.207-12.076 3.826-23.916 8.073-35.428 13.027a315.25 315.25 0 0 0-27.998 13.827c-26.032 7.775-52.007-5.876-63.668-11.006-17.505-7.837-35.398-19.845-53.682-36.024a121.426 121.426 0 0 0 26.258 9.86c9.142 2.022 18.964 3.033 29.467 3.033 42.596 0 77.996-13.65 106.2-40.951 28.397-27.302 42.595-61.176 42.595-101.623 0-40.194-15.366-73.562-46.098-100.106-30.732-26.543-69.73-39.814-116.994-39.814-24.702 0-47.361 5.182-67.978 15.547-20.424 10.364-38.415 25.657-53.975 45.88-16.144 20.982-28.69 45.63-37.637 73.942-8.752 28.06-13.129 57.259-13.129 87.594 0 57.384 16.144 103.517 48.432 138.402 26.56 28.318 60.276 45.052 101.14 50.215a279.071 279.071 0 0 0-6.386 11.107c-18.24 33.652-27.36 68.114-27.36 103.383 0 41.418 12.262 72.804 36.784 94.16 19.455 16.826 43.37 25.239 71.742 25.239 97.48 0 197.292-98.367 299.434-295.1h93.324l-57.15 252.389h108.83l57.15-252.389h67.732c39.114 0 63.838-25.886 74.174-77.658h-125.49l113.389-507.688zm23.104 80.57L4875.54-384.25h-67.79zm-572.735 212.043c4.084 6.32 7.097 13.018 9.043 20.096 1.946 7.078 2.92 15.041 2.92 23.889 0 18.2-4.863 33.115-14.588 44.744-9.725 11.628-22.27 17.443-37.636 17.443-8.753 0-17.31-1.77-25.674-5.308-8.364-3.792-15.659-8.975-21.883-15.547 8.363-24.268 19.838-43.48 34.426-57.637 14.782-14.409 32.58-23.635 53.392-27.68zm289.412 292.733c-17.834 40.123-43.267 79.761-76.3 118.914-37.695 45.3-69.109 67.95-94.239 67.95-18.24 0-27.36-13.914-27.36-41.741 0-32.681 12.666-63.582 37.999-92.703 23.431-23.045 41.328-31.862 69.732-41.4 25.294-7.34 55.34-11.02 90.168-11.02z" style="line-height:0;-inkscape-font-specification:'Fira Code'" font-weight="400" font-size="128.679" font-family="Fira Code" word-spacing="0" stroke-width="27.549"/><path d="M5586.275-384.25q-7.6 42.712-34.959 63.097-19.151 14.56-41.039 14.56H5393.24q-44.99 0-44.99-49.02 0-12.62 3.343-28.637l112.782-507.688h107.613l-113.39 507.688zM5347.033-384.25q-7.6 42.712-34.959 63.097-19.151 14.56-41.039 14.56h-117.037q-44.99 0-44.99-49.02 0-12.62 3.343-28.637l112.781-507.688h107.614l-113.39 507.688z" style="line-height:0;-inkscape-font-specification:'Magneto, Bold Semi-Expanded';font-variant-ligatures:normal;font-variant-caps:normal;font-variant-numeric:normal;font-feature-settings:normal;text-align:start" font-weight="700" font-stretch="semi-expanded" font-size="128.679" font-family="Magneto" word-spacing="0" stroke-width="27.549"/><path d="M5989.065-384.25q-17.935 77.658-67.182 77.658h-74.174q-26.447 114.545-55.63 169.876-40.736 76.687-101.23 76.687-38 0-58.67-35.43-17.936-31.064-17.936-80.086 0-38.829 10.335-75.23 10.64-36.403 27.664-55.817h-23.104q-20.063 0-33.439-19.415-13.071-19.9-13.071-49.507 0-13.59 3.04-27.665l52.894-233.459h110.35l-56.847 252.388h61.71l55.935-252.388h109.741l-55.934 252.388zm-254.441 90.763q-20.064 0-37.391 35.916-17.024 36.402-17.024 72.32 0 32.033 17.632 51.448z" style="line-height:0;-inkscape-font-specification:'Magneto, Bold Semi-Expanded';font-variant-ligatures:normal;font-variant-caps:normal;font-variant-numeric:normal;font-feature-settings:normal;text-align:start" font-weight="700" font-stretch="semi-expanded" font-size="128.679" font-family="Magneto" word-spacing="0" stroke-width="27.549"/><path d="M2314.74-552.306l-40.555-151.296-39.387 186.56zm235.446 217.654l-254.411 102.38 65.061-113.377-18.38-83.8-94.53 9.48-27.424 97.83 41.137 41.71-276.584 25.786 67.396-65.22 89.569-452.752-50.766-42.848 343.105 14.789-79.941 37.16 140.334 407.248zM2893.582-820.771l-68.562 151.296q-7.294-16.305-18.09-24.268-10.503-8.342-24.507-8.342-21.006 0-30.342 21.613-9.045 21.614-9.045 70.908v14.41q.31 5.687.875 10.996l79.066-3.792 59.81-65.978-24.507 214.24-50.766-65.22-56.6 9.48q6.126 55.74 14.587 106.931 8.46 50.812 19.256 97.452l58.643 34.127-259.955 14.788 67.104-63.704q-13.129-70.529-19.547-106.93-6.42-36.782-10.504-61.808l-33.551 6.446-41.138 73.562-21.59-240.784 42.596 57.636 38.22-1.516q-2.918-26.544-4.668-51.57-1.459-25.026-1.459-47.778 0-70.15 30.926-106.173 30.926-36.022 90.445-36.022 28.591 0 56.017 10.617 27.716 10.238 53.39 30.335zM3263.82-820.771l-68.562 151.296q-7.294-16.305-18.09-24.268-10.503-8.342-24.507-8.342-21.006 0-30.343 21.613-9.044 21.614-9.044 70.908v14.41q.31 5.687.875 10.996l79.066-3.792 59.81-65.978-24.508 214.24-50.765-65.22-56.601 9.48q6.127 55.74 14.588 106.931 8.46 50.812 19.256 97.452l58.643 34.127-259.955 14.788 67.104-63.704q-13.129-70.529-19.548-106.93-6.418-36.782-10.503-61.808l-33.551 6.446-41.138 73.562-21.59-240.784 42.596 57.636 38.22-1.516q-2.918-26.544-4.668-51.57-1.46-25.026-1.46-47.778 0-70.15 30.927-106.173 30.926-36.022 90.444-36.022 28.592 0 56.018 10.617 27.716 10.238 53.39 30.335zM3418.742-563.682q-7.586 11.376-11.086 24.268-3.504 12.893-3.504 29.956 0 33.369 16.63 56.12 16.923 22.372 41.43 22.372 8.752 0 18.089-4.55 9.336-4.93 18.964-14.03-18.673-44.745-39.095-73.184-20.132-28.818-41.43-40.952zm204.23-79.25l-42.889 25.406 8.752 317.76 33.553 33.368-128.373 20.855 21.882-115.652q-26.842 57.257-62.144 86.455-35.01 29.197-76.44 29.197-49.599 0-83.734-52.707-33.844-53.086-33.844-131.2 0-99.726 36.47-163.808 36.47-64.462 91.903-64.462 42.013 0 73.814 28.818 32.093 28.439 53.975 85.317l-18.38-117.169zM3741.716-452.58q5.251 11.755 14.004 17.443 9.044 5.688 21.882 5.688 22.757 0 39.97-25.406 17.505-25.405 17.505-58.395 0-12.892-3.793-24.647-3.5-11.755-11.962-25.026-27.133 18.58-46.68 46.26-19.549 27.681-30.927 64.083zm36.469-338.615l-46.68 235.855q32.092-49.673 63.894-73.562 32.093-24.268 66.52-24.268 53.1 0 90.736 51.949 37.636 51.57 37.636 125.132 0 91.384-53.39 150.538-53.392 58.774-145.587 68.633l-164.258 17.063 46.68-55.361-9.627-480.432-34.72-25.785 189.934-17.822zM4233.032-255.402l-242.74 15.547 66.812-49.674-5.252-435.687-60.394-14.03 229.029-83.8-53.392 536.55z" style="line-height:1.15000629em;-inkscape-font-specification:'Snap ITC, Normal';font-variant-ligatures:normal;font-variant-caps:normal;font-variant-numeric:normal;font-feature-settings:normal;text-align:center" font-weight="400" font-size="15.436" font-family="Snap ITC" word-spacing="-.169" text-anchor="middle" stroke-width="30.234" paint-order="fill markers stroke"/></g></g></svg>