<svg xmlns="http://www.w3.org/2000/svg" xmlns:xlink="http://www.w3.org/1999/xlink" height="2402" width="4000"><defs><linearGradient id="a"><stop offset="0" stop-color="#fff"/><stop offset="1" stop-color="#f0f"/></linearGradient><radialGradient gradientUnits="userSpaceOnUse" gradientTransform="matrix(-.85437 1.0443 -.46355 -.29985 1600.752 -1276.618)" r="268.204" fy="-306.115" fx="1086.33" cy="-306.115" cx="1086.33" id="d" xlink:href="#a"/><radialGradient r="268.204" fy="-306.115" fx="1086.33" cy="-306.115" cx="1086.33" gradientTransform="matrix(-.85437 1.0443 -.46355 -.29985 1600.752 -1276.618)" gradientUnits="userSpaceOnUse" id="f" xlink:href="#a"/><radialGradient r="268.204" fy="-306.115" fx="1086.33" cy="-306.115" cx="1086.33" gradientTransform="matrix(-.85437 1.0443 -.46355 -.29985 1600.752 -1276.618)" gradientUnits="userSpaceOnUse" id="g" xlink:href="#a"/><radialGradient r="268.204" fy="-306.115" fx="1086.33" cy="-306.115" cx="1086.33" gradientTransform="matrix(-.85437 1.0443 -.46355 -.29985 1600.752 -1276.618)" gradientUnits="userSpaceOnUse" id="h" xlink:href="#a"/><radialGradient r="268.204" fy="-306.115" fx="1086.33" cy="-306.115" cx="1086.33" gradientTransform="matrix(-.85437 1.0443 -.46355 -.29985 1600.752 -1276.618)" gradientUnits="userSpaceOnUse" id="i" xlink:href="#a"/><radialGradient r="268.204" fy="-306.115" fx="1086.33" cy="-306.115" cx="1086.33" gradientTransform="matrix(-.85437 1.0443 -.46355 -.29985 1600.752 -1276.618)" gradientUnits="userSpaceOnUse" id="j" xlink:href="#a"/><radialGradient r="268.204" fy="-306.115" fx="1086.33" cy="-306.115" cx="1086.33" gradientTransform="matrix(-.85437 1.0443 -.46355 -.29985 1600.752 -1276.618)" gradientUnits="userSpaceOnUse" id="k" xlink:href="#a"/><radialGradient r="268.204" fy="-306.115" fx="1086.33" cy="-306.115" cx="1086.33" gradientTransform="matrix(-.85437 1.0443 -.46355 -.29985 1600.752 -1276.618)" gradientUnits="userSpaceOnUse" id="l" xlink:href="#a"/><radialGradient r="268.204" fy="-306.115" fx="1086.33" cy="-306.115" cx="1086.33" gradientTransform="matrix(-.85437 1.0443 -.46355 -.29985 1600.752 -1276.618)" gradientUnits="userSpaceOnUse" id="e" xlink:href="#a"/><radialGradient r="268.204" fy="-306.115" fx="1086.33" cy="-306.115" cx="1086.33" gradientTransform="matrix(-.85437 1.0443 -.46355 -.29985 1600.752 -1276.618)" gradientUnits="userSpaceOnUse" id="n" xlink:href="#a"/><radialGradient r="268.204" fy="-306.115" fx="1086.33" cy="-306.115" cx="1086.33" gradientTransform="matrix(-.85437 1.0443 -.46355 -.29985 1600.752 -1276.618)" gradientUnits="userSpaceOnUse" id="o" xlink:href="#a"/><radialGradient r="268.204" fy="-306.115" fx="1086.33" cy="-306.115" cx="1086.33" gradientTransform="matrix(-.85437 1.0443 -.46355 -.29985 1600.752 -1276.618)" gradientUnits="userSpaceOnUse" id="p" xlink:href="#a"/><radialGradient r="268.204" fy="-306.115" fx="1086.33" cy="-306.115" cx="1086.33" gradientTransform="matrix(-.85437 1.0443 -.46355 -.29985 1600.752 -1276.618)" gradientUnits="userSpaceOnUse" id="q" xlink:href="#a"/><radialGradient r="268.204" fy="-306.115" fx="1086.33" cy="-306.115" cx="1086.33" gradientTransform="matrix(-.85437 1.0443 -.46355 -.29985 1600.752 -1276.618)" gradientUnits="userSpaceOnUse" id="m" xlink:href="#a"/><linearGradient id="c"><stop offset="0" stop-color="#ff91ff"/><stop offset="1" stop-color="#f0f" stop-opacity=".97"/></linearGradient><linearGradient id="b"><stop offset="0" stop-color="#fff" stop-opacity="0"/><stop offset="1" stop-opacity=".996"/></linearGradient><linearGradient xlink:href="#b" id="y" x1="722.795" y1="319.609" x2="732.288" y2="412.825" gradientUnits="userSpaceOnUse" gradientTransform="matrix(1.10502 .57596 0 1.28166 -91.592 -307.848)"/><filter id="s" x="-.018" width="1.035" y="-.037" height="1.075" color-interpolation-filters="sRGB"><feGaussianBlur stdDeviation="3.347"/></filter><filter id="t" x="-.019" width="1.038" y="-.033" height="1.065" color-interpolation-filters="sRGB"><feGaussianBlur stdDeviation="5.159"/></filter><filter id="u" x="-.016" width="1.032" y="-.048" height="1.096" color-interpolation-filters="sRGB"><feGaussianBlur stdDeviation="2.538"/></filter><filter id="z" x="-.019" width="1.037" y="-.034" height="1.067" color-interpolation-filters="sRGB"><feGaussianBlur stdDeviation="3.41"/></filter><filter id="w" x="-.027" width="1.053" y="-.056" height="1.112" color-interpolation-filters="sRGB"><feGaussianBlur stdDeviation="6.268"/></filter><filter id="v" x="-.05" width="1.101" y="-.151" height="1.302" color-interpolation-filters="sRGB"><feGaussianBlur stdDeviation="1.294"/></filter><radialGradient xlink:href="#c" id="r" cx="1069.486" cy="-469.931" fx="1069.486" fy="-469.931" r="598.001" gradientTransform="matrix(.3449 .17563 -.10026 .1969 679.675 -353.383)" gradientUnits="userSpaceOnUse"/><filter id="x" x="-.018" width="1.036" y="-.036" height="1.071" color-interpolation-filters="sRGB"><feGaussianBlur stdDeviation="3.586"/></filter></defs><g transform="matrix(6.67345 0 0 7.5051 -2505.224 -31.928)" fill="url(#d)" font-size="15.436" letter-spacing="0" word-spacing="-.169" text-anchor="middle" stroke="purple" stroke-width="3.533" paint-order="fill markers stroke"><g fill="url(#e)" font-weight="400" font-family="Snap ITC"><path style="line-height:1.15000629em;-inkscape-font-specification:'Snap ITC, Normal';font-variant-ligatures:normal;font-variant-caps:normal;font-variant-numeric:normal;font-feature-settings:normal;text-align:center" d="M479.094 76.587l-8.073-20.335-7.841 25.074zm46.87 29.254L475.32 119.6l12.952-15.238-3.66-11.264-18.817 1.274-5.46 13.15 8.19 5.606-55.06 3.465 13.416-8.766 17.83-60.852-10.105-5.759 68.302 1.988-15.914 4.994 27.936 54.737z" fill="url(#f)"/><path style="line-height:1.15000629em;-inkscape-font-specification:'Snap ITC, Normal';font-variant-ligatures:normal;font-variant-caps:normal;font-variant-numeric:normal;font-feature-settings:normal;text-align:center" d="M594.325 40.504l-13.65 20.335q-1.451-2.192-3.6-3.262-2.091-1.121-4.879-1.121-4.182 0-6.04 2.905-1.8 2.905-1.8 9.53v1.937q.061.764.174 1.478l15.74-.51 11.906-8.868-4.879 28.795-10.106-8.766-11.268 1.274q1.22 7.492 2.904 14.373 1.685 6.829 3.834 13.098l11.674 4.586-51.75 1.988 13.359-8.562q-2.614-9.48-3.891-14.372-1.278-4.944-2.091-8.307l-6.68.866-8.189 9.887-4.298-32.363 8.48 7.747 7.608-.204q-.58-3.567-.929-6.931-.29-3.364-.29-6.422 0-9.428 6.156-14.27 6.157-4.841 18.005-4.841 5.692 0 11.151 1.427 5.518 1.376 10.629 4.077z" fill="url(#g)"/><path style="line-height:1.15000629em;-inkscape-font-specification:'Snap ITC, Normal';font-variant-ligatures:normal;font-variant-caps:normal;font-variant-numeric:normal;font-feature-settings:normal;text-align:center" d="M668.028 40.504L654.38 60.839q-1.452-2.192-3.6-3.262-2.091-1.121-4.88-1.121-4.181 0-6.04 2.905-1.8 2.905-1.8 9.53v1.937q.062.764.174 1.478l15.74-.51 11.906-8.868L661 91.723l-10.105-8.766-11.268 1.274q1.22 7.492 2.904 14.373 1.684 6.829 3.833 13.098l11.674 4.586-51.749 1.988 13.358-8.562q-2.613-9.48-3.89-14.372-1.279-4.944-2.092-8.307l-6.679.866-8.19 9.887-4.297-32.363 8.48 7.747 7.608-.204q-.581-3.567-.93-6.931-.29-3.364-.29-6.422 0-9.428 6.157-14.27 6.156-4.841 18.005-4.841 5.691 0 11.15 1.427 5.518 1.376 10.63 4.077z" fill="url(#h)"/><path style="line-height:1.15000629em;-inkscape-font-specification:'Snap ITC, Normal';font-variant-ligatures:normal;font-variant-caps:normal;font-variant-numeric:normal;font-feature-settings:normal;text-align:center" d="M698.869 75.058q-1.51 1.529-2.207 3.262-.698 1.732-.698 4.026 0 4.485 3.31 7.543 3.37 3.007 8.248 3.007 1.743 0 3.601-.612 1.859-.663 3.775-1.886-3.717-6.014-7.782-9.836-4.008-3.873-8.248-5.504zm40.656-10.652l-8.538 3.415 1.742 42.708 6.68 4.485-25.556 2.803 4.356-15.544q-5.343 7.696-12.37 11.62-6.97 3.924-15.218 3.924-9.873 0-16.669-7.084-6.737-7.135-6.737-17.634 0-13.403 7.26-22.016 7.26-8.665 18.295-8.665 8.364 0 14.695 3.874 6.388 3.822 10.744 11.467L714.55 62.01z" fill="url(#i)"/><path style="line-height:1.15000629em;-inkscape-font-specification:'Snap ITC, Normal';font-variant-ligatures:normal;font-variant-caps:normal;font-variant-numeric:normal;font-feature-settings:normal;text-align:center" d="M763.163 89.99q1.046 1.58 2.788 2.345 1.8.764 4.356.764 4.53 0 7.957-3.414 3.485-3.415 3.485-7.849 0-1.733-.755-3.313-.697-1.58-2.382-3.363-5.401 2.497-9.292 6.217-3.892 3.72-6.157 8.614zm7.26-45.511l-9.292 31.7q6.388-6.676 12.719-9.887 6.389-3.262 13.242-3.262 10.57 0 18.063 6.982 7.492 6.931 7.492 16.819 0 12.282-10.628 20.233-10.629 7.9-28.982 9.224l-32.7 2.294 9.294-7.441-1.917-64.573-6.912-3.465 37.81-2.396z" fill="url(#j)"/><path style="line-height:1.15000629em;-inkscape-font-specification:'Snap ITC, Normal';font-variant-ligatures:normal;font-variant-caps:normal;font-variant-numeric:normal;font-feature-settings:normal;text-align:center" d="M860.97 116.492l-48.323 2.09 13.3-6.677-1.045-58.558-12.022-1.886 45.593-11.263-10.63 72.115z" fill="url(#k)"/><path style="line-height:1.15000629em;-inkscape-font-specification:'Snap ITC, Normal';font-variant-ligatures:normal;font-variant-caps:normal;font-variant-numeric:normal;font-feature-settings:normal;text-align:center" d="M877.349 81.734q1.858 1.325 4.356 2.09 2.497.713 5.11.713 4.589 0 7.493-2.344 2.904-2.345 2.904-6.014 0-1.784-.581-3.21-.581-1.428-1.8-2.702-6.215.816-10.63 3.72-4.355 2.855-6.853 7.747zm57.79 36.338l-5.228-8.46q-7.725 4.281-15.45 6.37-7.724 2.09-15.971 2.09-16.088 0-25.788-6.982-9.641-7.033-9.641-18.602 0-6.116 2.613-11.773 2.672-5.708 7.493-9.938 4.646-4.077 10.745-6.167 6.156-2.09 13.532-2.09 14.114 0 23.29 5.352 9.177 5.351 9.177 13.454 0 8.155-8.48 13.66-8.421 5.503-21.14 5.503-3.137 0-5.867-.407-2.73-.46-5.227-1.326 5.46 3.262 10.687 4.842 5.285 1.53 10.86 1.53 6.796 0 12.488-2.651 5.692-2.65 9.757-7.696z" fill="url(#l)"/></g><g fill="url(#m)" font-weight="700" font-stretch="semi-expanded" font-family="Magneto"><path style="line-height:1.15000629em;-inkscape-font-specification:'Magneto, Bold Semi-Expanded';font-variant-ligatures:normal;font-variant-caps:normal;font-variant-numeric:normal;font-feature-settings:normal;text-align:center" d="M774.196 207.267c-1.975 6.896-6.699 10.345-14.172 10.345h-13.358l-10.919 33.62h-20.793l10.92-33.62h-17.831c-19.515 26.207-38.585 39.31-57.209 39.31-5.42 0-9.99-1.12-13.707-3.362-4.685-2.845-7.028-7.026-7.028-12.543 0-4.698 1.743-9.289 5.228-13.772 5.614-7.198 14.113-12.521 25.497-15.97 8.905-2.672 18.74-4.008 29.504-4.008h11.268l42.332-67.605h27.995l-22.12 67.605zm-25.854-56.872l-32.575 56.872h12.952zm-54.587 67.217c-14.52 0-24.703 2.327-30.55 6.983-4.84 3.879-7.26 7.995-7.26 12.349 0 3.707 1.742 5.56 5.227 5.56 4.801 0 10.803-3.017 18.005-9.052 6.311-5.215 11.17-10.496 14.578-15.84z" fill="url(#n)"/><path style="line-height:1.15000629em;-inkscape-font-specification:'Magneto, Bold Semi-Expanded';font-variant-ligatures:normal;font-variant-caps:normal;font-variant-numeric:normal;font-feature-settings:normal;text-align:center" d="M819.294 207.267q-1.452 5.69-6.68 8.405-3.658 1.94-7.84 1.94h-22.36q-8.597 0-8.597-6.53 0-1.682.64-3.815l21.547-67.63h20.56l-21.664 67.63z" fill="url(#o)"/><path style="line-height:1.15000629em;-inkscape-font-specification:'Magneto, Bold Semi-Expanded';font-variant-ligatures:normal;font-variant-caps:normal;font-variant-numeric:normal;font-feature-settings:normal;text-align:center" d="M863.9 207.267q-1.453 5.69-6.68 8.405-3.659 1.94-7.84 1.94h-22.361q-8.596 0-8.596-6.53 0-1.682.639-3.815l21.547-67.63h20.56l-21.663 67.63z" fill="url(#p)"/><path style="line-height:1.15000629em;-inkscape-font-specification:'Magneto, Bold Semi-Expanded';font-variant-ligatures:normal;font-variant-caps:normal;font-variant-numeric:normal;font-feature-settings:normal;text-align:center" d="M940.856 207.267c-2.285 6.896-6.564 10.345-12.836 10.345h-14.172c-3.368 10.172-6.911 19.613-10.628 24.527-5.189 6.81-11.636 10.215-19.34 10.215-4.841 0-8.577-1.573-11.21-4.72-2.285-2.758-3.427-6.314-3.427-10.668 0-3.448.658-8.686 1.975-11.919 1.355-3.233 3.117-5.711 5.285-7.435h-4.414c-2.556 0-4.685-.862-6.389-2.587-1.665-1.767-2.497-3.965-2.497-6.594a12.4 12.4 0 0 1 .58-3.686l10.106-31.1h21.084l-10.861 33.622h11.79l10.687-33.621h20.966l-10.686 33.62zm-48.613 12.09c-2.556 0-4.937 1.595-7.144 4.785-2.169 3.233-3.253 8.342-3.253 11.531 0 2.845 1.123 5.13 3.369 6.854z" fill="url(#q)"/></g></g><path style="line-height:normal;font-variant-ligatures:normal;font-variant-position:normal;font-variant-caps:normal;font-variant-numeric:normal;font-variant-alternates:normal;font-feature-settings:normal;text-indent:0;text-align:start;text-decoration-line:none;text-decoration-style:solid;text-decoration-color:#000;text-transform:none;text-orientation:mixed;white-space:normal;shape-padding:0;isolation:auto;mix-blend-mode:normal;solid-color:#000;solid-opacity:1" d="M728.134-431.648a1007.862 1007.862 0 0 0-79.66 3.17c-154.495 12.305-294.763 59.447-391.465 132.96-96.618 73.448-142.19 169.47-121.793 264.802 10.695 63.395 57.46 116.597 118.906 161.322 61.595 44.833 138.863 81.662 214.688 111.213 151.649 59.103 298.049 88.914 298.049 88.914l15.507 3.164 8.905-59.93c14.057-2.77 81.547-16.224 166.523-38.814 94.25-25.055 198.967-57.438 249.686-97.719 94.143-74.767 136.298-171.693 112.367-266.734-23.93-95.041-109.485-177.62-235.012-232.738-103.952-45.645-229.033-69.65-356.701-69.61z" color="#000" font-weight="400" font-family="sans-serif" overflow="visible" fill="url(#r)" paint-order="fill markers stroke" enable-background="accumulate" transform="translate(250.68 1878.6)"/><path d="M753.01 1488.714l24.761 72.357 123.539 176.26 163.67-1.574 114.692-180.98 26.28-68.274c-143.14-34.844-311.286-39.58-452.943 2.21z" fill="#fff2f6"/><path d="M358.405-77.527l46.543-.87c201.76 205.351 658.204 223.15 686.522-7.624l44.272 8.494c-186.876 232.969-573.013 262.573-777.337 0z" opacity=".1" stroke="#000" filter="url(#s)" transform="translate(250.68 1878.6)"/><path d="M139.32-57.537c66.825 170.328 319.701 305.885 649.725 337.069l-11.4 42.625C283.112 223.087 192.3 132.246 139.32-57.537z" opacity=".1" filter="url(#t)" transform="translate(250.68 1878.6)"/><path d="M790.212 269.215l-6.582-138.607c115.316-41.863 246.059-12.203 263.434 25.938 87.19-5.42 181.459-77.703 257.358-183.956-5.798 116.69-320.398 311.526-514.21 296.625z" opacity=".1" filter="url(#u)" transform="translate(250.68 1878.6)"/><g transform="translate(250.68 1878.6)"><ellipse cx="729.34" cy="-71.59" rx="583.872" ry="349.751" opacity=".115" fill="none" paint-order="fill markers stroke"/><ellipse ry="16.662" rx="18.157" cy="-18.326" cx="728.439" fill="purple" stroke="purple" stroke-width="1.63" stroke-linecap="square" stroke-linejoin="round" paint-order="stroke markers fill"/><ellipse cx="728.439" cy="-90.57" rx="18.157" ry="16.662" fill="purple" stroke="purple" stroke-width="1.63" stroke-linecap="square" stroke-linejoin="round" paint-order="stroke markers fill"/><ellipse cx="728.439" cy="53.918" rx="18.157" ry="16.662" fill="purple" stroke="purple" stroke-width="1.63" stroke-linecap="square" stroke-linejoin="round" paint-order="stroke markers fill"/><path d="M388.061-86.492l-29.656 8.965C468.65 41.93 583.951 105.197 782.045 109.382c5.587 65.382 8.846 114.133-4.4 212.775-260.707-49.33-589.41-124.747-627.722-355.778-19.15-89.003 22.594-178.825 116.163-249.956 93.57-71.132 231.409-117.828 383.579-129.947 152.17-12.12 306.38 11.318 429.14 65.22 122.758 53.903 204.149 133.918 226.495 222.666 22.346 88.748-16.158 179.062-107.149 251.326-90.99 72.264-256.238 129.544-407.939 143.527" fill="none" stroke="purple" stroke-width="30" stroke-linecap="square" paint-order="fill markers stroke"/><ellipse cx="729.339" cy="255.174" rx="18.157" ry="16.662" fill="purple" stroke="purple" stroke-width="1.63" stroke-linecap="square" stroke-linejoin="round" paint-order="stroke markers fill"/><path d="M678.918-130.181V96.264M1091.47-86.02l44.272 8.493c-72.24 93.058-204.793 171.772-353.698 186.909m57.886-251.051H613.486" fill="none" stroke="purple" stroke-width="30"/><path d="M486.194-384.322l241.004 257.39-133.076 22.97z" fill="purple"/><path style="line-height:normal;font-variant-ligatures:normal;font-variant-position:normal;font-variant-caps:normal;font-variant-numeric:normal;font-variant-alternates:normal;font-feature-settings:normal;text-indent:0;text-align:start;text-decoration-line:none;text-decoration-style:solid;text-decoration-color:#000;text-transform:none;text-orientation:mixed;white-space:normal;shape-padding:0;isolation:auto;mix-blend-mode:normal;solid-color:#000;solid-opacity:1" d="M513.59-396.548l-28 10.768 81.28 211.355 28-10.768z" color="#000" font-weight="400" font-family="sans-serif" overflow="visible" fill="purple" enable-background="accumulate"/><path d="M968.202-384.322l-241.004 257.39 133.076 22.97z" fill="purple"/><path d="M940.806-396.548l28 10.768-81.28 211.355-28-10.768z" style="line-height:normal;font-variant-ligatures:normal;font-variant-position:normal;font-variant-caps:normal;font-variant-numeric:normal;font-variant-alternates:normal;font-feature-settings:normal;text-indent:0;text-align:start;text-decoration-line:none;text-decoration-style:solid;text-decoration-color:#000;text-transform:none;text-orientation:mixed;white-space:normal;shape-padding:0;isolation:auto;mix-blend-mode:normal;solid-color:#000;solid-opacity:1" color="#000" font-weight="400" font-family="sans-serif" overflow="visible" fill="purple" enable-background="accumulate"/></g><path d="M1050.71 2020.994c-25.022 36.782-13.617 89.787-4.722 133.375 2.288 11.21 5.119 24.616 14.557 31.081 23.75 16.27 60.776 14.471 89.501 12.579 30.31-1.997 60.934-15.764 85.972-24.775 37.428-13.471 24.268-78.081 20.065-117.637-4.46-41.971-43.105-31.17-76.373-35.663-7.119-39.716-54.458-28.101-85.722-17.845-14.956 4.907-34.425 5.871-43.278 18.885z" fill="#fff2f6" stroke="purple" stroke-width="30"/><path transform="matrix(-1.00325 0 0 -.93331 2102.059 3181.344)" d="M898.965 1229.197c4.76-.025 34.939 20.671 31.448 12.795-11.469-25.87 63.493-19.569 59.984-26.466-29.448-1.478-61.934 4.87-91.432 13.671z" opacity=".1" filter="url(#v)"/><path d="M932.242 1212.35c-7.988 8.272-24.168 34.105.92 43.037-5.039-40.219 57.041-25.204 65.788-36.636-28.104-17.19-64.985 12.088-66.708-6.4z" transform="matrix(-1.89303 .22887 -.10287 -.85085 3133.525 2900.065)" opacity=".1" filter="url(#v)"/><path transform="matrix(-1.89303 .22887 -.10287 -.85085 3137.725 2951.523)" d="M933.2 1213.431c-4.705 4.012-8.851 29.585-1.913 62.845-10.647-63.182 57.45-38.723 67.663-57.525-29.265-12.297-67.53 15.845-65.75-5.32z" opacity=".1" filter="url(#v)"/><g><ellipse cx="-800.575" cy="386.224" rx="290.603" ry="291.209" transform="matrix(-1 0 0 1 179.445 975.275)" fill="#fff2f6" stroke="#000" stroke-width="30.265" paint-order="markers fill stroke"/><path d="M513.79 356.791c74.964-139.35 161.768-192.526 282.652-202.53 141.952 4.256 205.07 102.806 283.766 199.192l-16.693-161.357L804.232 87.492 523.805 198.773z" opacity=".1" fill-opacity=".996" filter="url(#w)" transform="translate(179.445 975.275)"/><path d="M511.927 466.516c98.236 218.857 276.959 257.63 475.271 152.653-63.074 47.801-145.29 113.421-315.536 80.261-103.316-61.055-154.768-161.396-159.735-232.914z" opacity=".1" fill-opacity=".996" stroke="#000" filter="url(#x)" transform="translate(179.445 975.275)"/><path d="M1061.456 531.777C896.163 741.13 595.36 734.105 509.146 428.437c233.91 311.667 369.79 201.236 552.31 103.34z" opacity=".1" fill="url(#y)" paint-order="stroke fill markers" filter="url(#z)" transform="translate(179.445 975.275)"/><g transform="matrix(1.19765 0 0 1.13134 141.663 810.49)"><path d="M870.465 436.598c-17.306-49.885-43.017-99.703-136.428-66.26m-204.5 68.136c17.307-49.885 43.017-99.702 136.428-66.259m89.336 224.245c-50.258 26.199-111.7 10.566-152.098-27.124m11.177-36.544c-9.34 17.944-24.238 41.076-38.344 58.317" fill="none" stroke="purple" stroke-width="26"/><path d="M655.828 181.611c-5.383-.07-10.828.175-16.236.557-24.518 1.73-56.899 21.46-81.082 31.451-38.453 15.886-51.627 58.513-108.994 81.123-18.979 7.48-35.223 79.186-32.93 79.186 36.726-12.664-9.952 100.302-16.807 99.088 31.642 62.249 85.028-11.72 84.639-25.688-2.32-83.209 51.714-129.868 34.953-86.71-3.466 8.924 51.109-34.062 51.106-53.575 10.849 8.605 29.84 16.839 49.566 1.723-21.302 13.666-5.25-59.889 79.959-35.938 85.21-23.951 101.259 49.604 79.957 35.938 19.725 15.116 38.717 6.882 49.566-1.723-.003 19.513 54.572 62.5 51.106 53.574-16.76-43.157 37.273 3.502 34.953 86.711-.39 13.969 52.997 87.937 84.639 25.688-6.855 1.214-53.533-111.752-16.807-99.088 2.293 0-13.952-71.706-32.93-79.186-57.367-22.61-70.541-65.237-108.994-81.123-24.184-9.991-56.564-29.72-81.082-31.451-21.633-1.527-43.843-.882-60.408 13.457-12.424-10.754-28.024-13.804-44.174-14.014z" fill="purple" paint-order="stroke markers fill"/><ellipse cx="-700.001" cy="487.042" rx="242.644" ry="257.402" transform="scale(-1 1)" fill="none" stroke="purple" stroke-width="26" paint-order="markers fill stroke"/></g></g></svg>